# MagicaVoxel @ Ephtracy

# group
o 

# material
mtllib gun.mtl
usemtl palette

# normals
vn 0 0 -1
vn 0 0 1
vn -1 0 0
vn 1 0 0
vn 0 -1 0
vn 0 1 0

# texcoords
vt 0.0449219 0.5
vt 0.310547 0.5
vt 0.537109 0.5

# verts
v -0.1 0 -0.2
v 0.2 0 -0.2
v -0.1 0.4 -0.2
v 0.2 0.4 -0.2
v -0.1 0.4 -0.1
v 0.2 0.4 -0.1
v -0.1 0.5 -0.1
v 0.2 0.5 -0.1
v -0.1 0.5 0
v 0.2 0.5 0
v -0.1 0.6 0
v 0 0.6 0
v 0.1 0.6 0
v 0.2 0.6 0
v 0 0.7 0
v 0.1 0.7 0
v -0.1 0.6 0.5
v 0 0.6 0.5
v 0.1 0.6 0.5
v 0.2 0.6 0.5
v 0 0.7 0.5
v 0.1 0.7 0.5
v -0.1 0.8 0.5
v 0.2 0.8 0.5
v -0.2 0.5 0.6
v -0.1 0.5 0.6
v 0.2 0.5 0.6
v 0.3 0.5 0.6
v -0.2 0.8 0.6
v -0.1 0.8 0.6
v 0.2 0.8 0.6
v 0.3 0.8 0.6
v -0.1 0.8 0.7
v 0.2 0.8 0.7
v -0.1 0.9 0.7
v 0.2 0.9 0.7
v -0.1 1 0.7
v 0.2 1 0.7
v 0.2 0.9 0.8
v 0.3 0.9 0.8
v -0.1 1 0.8
v 0.2 1 0.8
v 0.3 1 0.8
v -0.1 1.2 0.8
v 0.2 1.2 0.8
v 0.2 1 1
v 0.3 1 1
v 0.2 1.1 1
v 0.3 1.1 1
v 0.2 1 1.2
v 0.3 1 1.2
v 0.2 1.1 1.2
v 0.3 1.1 1.2
v 0 0.5 1.9
v 0.1 0.5 1.9
v -0.1 0.6 1.9
v 0 0.6 1.9
v 0.1 0.6 1.9
v 0.2 0.6 1.9
v -0.1 0.7 1.9
v 0 0.7 1.9
v 0.1 0.7 1.9
v 0.2 0.7 1.9
v 0 0.8 1.9
v 0.1 0.8 1.9
v 0 0.5 2.1
v 0.1 0.5 2.1
v -0.1 0.6 2.1
v 0 0.6 2.1
v 0.1 0.6 2.1
v 0.2 0.6 2.1
v -0.1 0.7 2.1
v 0 0.7 2.1
v 0.1 0.7 2.1
v 0.2 0.7 2.1
v 0 0.8 2.1
v 0.1 0.8 2.1
v 0 0.5 2.3
v 0.1 0.5 2.3
v -0.1 0.6 2.3
v 0 0.6 2.3
v 0.1 0.6 2.3
v 0.2 0.6 2.3
v -0.1 0.7 2.3
v 0 0.7 2.3
v 0.1 0.7 2.3
v 0.2 0.7 2.3
v 0 0.8 2.3
v 0.1 0.8 2.3
v -0.1 0.5 2.5
v 0.2 0.5 2.5
v 0 0.6 2.5
v 0.1 0.6 2.5
v 0 0.7 2.5
v 0.1 0.7 2.5
v -0.1 0.8 2.5
v 0.2 0.8 2.5
v -0.1 0.4 2.6
v 0.2 0.4 2.6
v -0.2 0.5 2.6
v -0.1 0.5 2.6
v 0.2 0.5 2.6
v 0.3 0.5 2.6
v -0.2 0.8 2.6
v -0.1 0.8 2.6
v 0.2 0.8 2.6
v 0.3 0.8 2.6
v -0.1 0.9 2.6
v 0.2 0.9 2.6
v -0.1 0 0.1
v 0.2 0 0.1
v -0.1 0.1 0.1
v 0.2 0.1 0.1
v -0.1 0.1 0.2
v 0.2 0.1 0.2
v -0.1 0.2 0.2
v 0.2 0.2 0.2
v -0.1 0.2 0.4
v 0.2 0.2 0.4
v -0.1 0.3 0.4
v 0.2 0.3 0.4
v -0.1 0.3 0.7
v 0.2 0.3 0.7
v -0.1 0.4 0.7
v 0.2 0.4 0.7
v 0.2 1 1.1
v 0.3 1 1.1
v 0.2 1.1 1.1
v 0.3 1.1 1.1
v 0.2 1 1.3
v 0.3 1 1.3
v 0.2 1.1 1.3
v 0.3 1.1 1.3
v 0.2 0.9 1.4
v 0.3 0.9 1.4
v -0.1 1 1.4
v 0.2 1 1.4
v 0.3 1 1.4
v -0.1 1.2 1.4
v 0.2 1.2 1.4
v -0.1 0.9 1.5
v 0.2 0.9 1.5
v -0.1 1 1.5
v 0.2 1 1.5
v -0.1 0.4 1.6
v 0.2 0.4 1.6
v -0.1 0.5 1.6
v 0.2 0.5 1.6
v -0.1 0.8 1.6
v 0.2 0.8 1.6
v -0.1 0.9 1.6
v 0.2 0.9 1.6
v -0.2 0.5 1.7
v -0.1 0.5 1.7
v 0.2 0.5 1.7
v 0.3 0.5 1.7
v -0.2 0.8 1.7
v -0.1 0.8 1.7
v 0.2 0.8 1.7
v 0.3 0.8 1.7
v -0.1 0.5 1.8
v 0.2 0.5 1.8
v 0 0.6 1.8
v 0.1 0.6 1.8
v 0 0.7 1.8
v 0.1 0.7 1.8
v -0.1 0.8 1.8
v 0.2 0.8 1.8
v 0 0.5 2
v 0.1 0.5 2
v -0.1 0.6 2
v 0 0.6 2
v 0.1 0.6 2
v 0.2 0.6 2
v -0.1 0.7 2
v 0 0.7 2
v 0.1 0.7 2
v 0.2 0.7 2
v 0 0.8 2
v 0.1 0.8 2
v 0 0.5 2.2
v 0.1 0.5 2.2
v -0.1 0.6 2.2
v 0 0.6 2.2
v 0.1 0.6 2.2
v 0.2 0.6 2.2
v -0.1 0.7 2.2
v 0 0.7 2.2
v 0.1 0.7 2.2
v 0.2 0.7 2.2
v 0 0.8 2.2
v 0.1 0.8 2.2
v 0 0.5 2.4
v 0.1 0.5 2.4
v -0.1 0.6 2.4
v 0 0.6 2.4
v 0.1 0.6 2.4
v 0.2 0.6 2.4
v -0.1 0.7 2.4
v 0 0.7 2.4
v 0.1 0.7 2.4
v 0.2 0.7 2.4
v 0 0.8 2.4
v 0.1 0.8 2.4
v -0.1 0.5 2.7
v 0.2 0.5 2.7
v -0.1 0.8 2.7
v 0.2 0.8 2.7
v -0.1 0.4 2.8
v 0.2 0.4 2.8
v -0.2 0.5 2.8
v -0.1 0.5 2.8
v 0.2 0.5 2.8
v 0.3 0.5 2.8
v -0.2 0.8 2.8
v -0.1 0.8 2.8
v 0.2 0.8 2.8
v 0.3 0.8 2.8
v -0.1 0.9 2.8
v 0.2 0.9 2.8
v -0.2 0.5 0.6
v -0.2 0.8 0.6
v -0.2 0.5 0.8
v -0.2 0.8 0.8
v -0.2 0.5 1
v -0.2 0.8 1
v -0.2 0.5 1.3
v -0.2 0.8 1.3
v -0.2 0.5 1.5
v -0.2 0.8 1.5
v -0.2 0.5 1.7
v -0.2 0.8 1.7
v -0.2 0.5 2.6
v -0.2 0.8 2.6
v -0.2 0.5 2.8
v -0.2 0.8 2.8
v -0.1 0 -0.2
v -0.1 0.4 -0.2
v -0.1 0.4 -0.1
v -0.1 0.5 -0.1
v -0.1 0.5 0
v -0.1 0.6 0
v -0.1 0 0.1
v -0.1 0.1 0.1
v -0.1 0.1 0.2
v -0.1 0.2 0.2
v -0.1 0.2 0.4
v -0.1 0.3 0.4
v -0.1 0.5 0.5
v -0.1 0.6 0.5
v -0.1 0.8 0.5
v -0.1 0.5 0.6
v -0.1 0.8 0.6
v -0.1 0.3 0.7
v -0.1 0.4 0.7
v -0.1 0.5 0.7
v -0.1 0.8 0.7
v -0.1 0.9 0.7
v -0.1 1 0.7
v -0.1 0.4 0.8
v -0.1 0.5 0.8
v -0.1 0.8 0.8
v -0.1 0.9 0.8
v -0.1 1 0.8
v -0.1 1.2 0.8
v -0.1 0.4 1
v -0.1 0.5 1
v -0.1 0.8 1
v -0.1 0.9 1
v -0.1 0.4 1.3
v -0.1 0.5 1.3
v -0.1 0.8 1.3
v -0.1 0.9 1.3
v -0.1 1 1.4
v -0.1 1.2 1.4
v -0.1 0.4 1.5
v -0.1 0.5 1.5
v -0.1 0.8 1.5
v -0.1 0.9 1.5
v -0.1 1 1.5
v -0.1 0.4 1.6
v -0.1 0.5 1.6
v -0.1 0.8 1.6
v -0.1 0.9 1.6
v -0.1 0.5 1.7
v -0.1 0.8 1.7
v -0.1 0.5 1.8
v -0.1 0.8 1.8
v -0.1 0.6 1.9
v -0.1 0.7 1.9
v -0.1 0.6 2
v -0.1 0.7 2
v -0.1 0.6 2.1
v -0.1 0.7 2.1
v -0.1 0.6 2.2
v -0.1 0.7 2.2
v -0.1 0.6 2.3
v -0.1 0.7 2.3
v -0.1 0.6 2.4
v -0.1 0.7 2.4
v -0.1 0.5 2.5
v -0.1 0.8 2.5
v -0.1 0.4 2.6
v -0.1 0.5 2.6
v -0.1 0.8 2.6
v -0.1 0.9 2.6
v -0.1 0.4 2.8
v -0.1 0.5 2.8
v -0.1 0.8 2.8
v -0.1 0.9 2.8
v 0 0.6 0
v 0 0.7 0
v 0 0.6 0.5
v 0 0.7 0.5
v 0 0.6 1.8
v 0 0.7 1.8
v 0 0.5 1.9
v 0 0.6 1.9
v 0 0.7 1.9
v 0 0.8 1.9
v 0 0.5 2
v 0 0.6 2
v 0 0.7 2
v 0 0.8 2
v 0 0.5 2.1
v 0 0.6 2.1
v 0 0.7 2.1
v 0 0.8 2.1
v 0 0.5 2.2
v 0 0.6 2.2
v 0 0.7 2.2
v 0 0.8 2.2
v 0 0.5 2.3
v 0 0.6 2.3
v 0 0.7 2.3
v 0 0.8 2.3
v 0 0.5 2.4
v 0 0.6 2.4
v 0 0.7 2.4
v 0 0.8 2.4
v 0 0.6 2.5
v 0 0.7 2.5
v 0.2 0.5 2.7
v 0.2 0.8 2.7
v 0.2 0.5 2.8
v 0.2 0.8 2.8
v -0.1 0.5 2.7
v -0.1 0.8 2.7
v -0.1 0.5 2.8
v -0.1 0.8 2.8
v 0.1 0.6 0
v 0.1 0.7 0
v 0.1 0.6 0.5
v 0.1 0.7 0.5
v 0.1 0.6 1.8
v 0.1 0.7 1.8
v 0.1 0.5 1.9
v 0.1 0.6 1.9
v 0.1 0.7 1.9
v 0.1 0.8 1.9
v 0.1 0.5 2
v 0.1 0.6 2
v 0.1 0.7 2
v 0.1 0.8 2
v 0.1 0.5 2.1
v 0.1 0.6 2.1
v 0.1 0.7 2.1
v 0.1 0.8 2.1
v 0.1 0.5 2.2
v 0.1 0.6 2.2
v 0.1 0.7 2.2
v 0.1 0.8 2.2
v 0.1 0.5 2.3
v 0.1 0.6 2.3
v 0.1 0.7 2.3
v 0.1 0.8 2.3
v 0.1 0.5 2.4
v 0.1 0.6 2.4
v 0.1 0.7 2.4
v 0.1 0.8 2.4
v 0.1 0.6 2.5
v 0.1 0.7 2.5
v 0.2 0 -0.2
v 0.2 0.4 -0.2
v 0.2 0.4 -0.1
v 0.2 0.5 -0.1
v 0.2 0.5 0
v 0.2 0.6 0
v 0.2 0 0.1
v 0.2 0.1 0.1
v 0.2 0.1 0.2
v 0.2 0.2 0.2
v 0.2 0.2 0.4
v 0.2 0.3 0.4
v 0.2 0.5 0.5
v 0.2 0.6 0.5
v 0.2 0.8 0.5
v 0.2 0.5 0.6
v 0.2 0.8 0.6
v 0.2 0.3 0.7
v 0.2 0.4 0.7
v 0.2 0.5 0.7
v 0.2 0.8 0.7
v 0.2 0.9 0.7
v 0.2 1 0.7
v 0.2 0.4 0.8
v 0.2 0.5 0.8
v 0.2 0.8 0.8
v 0.2 0.9 0.8
v 0.2 1 0.8
v 0.2 1.2 0.8
v 0.2 0.4 1
v 0.2 0.5 1
v 0.2 0.8 1
v 0.2 0.9 1
v 0.2 1 1
v 0.2 1.1 1
v 0.2 1 1.1
v 0.2 1.1 1.1
v 0.2 1 1.2
v 0.2 1.1 1.2
v 0.2 0.4 1.3
v 0.2 0.5 1.3
v 0.2 0.8 1.3
v 0.2 0.9 1.3
v 0.2 1 1.3
v 0.2 1.1 1.3
v 0.2 0.9 1.4
v 0.2 1 1.4
v 0.2 1.2 1.4
v 0.2 0.4 1.5
v 0.2 0.5 1.5
v 0.2 0.8 1.5
v 0.2 0.9 1.5
v 0.2 1 1.5
v 0.2 0.4 1.6
v 0.2 0.5 1.6
v 0.2 0.8 1.6
v 0.2 0.9 1.6
v 0.2 0.5 1.7
v 0.2 0.8 1.7
v 0.2 0.5 1.8
v 0.2 0.8 1.8
v 0.2 0.6 1.9
v 0.2 0.7 1.9
v 0.2 0.6 2
v 0.2 0.7 2
v 0.2 0.6 2.1
v 0.2 0.7 2.1
v 0.2 0.6 2.2
v 0.2 0.7 2.2
v 0.2 0.6 2.3
v 0.2 0.7 2.3
v 0.2 0.6 2.4
v 0.2 0.7 2.4
v 0.2 0.5 2.5
v 0.2 0.8 2.5
v 0.2 0.4 2.6
v 0.2 0.5 2.6
v 0.2 0.8 2.6
v 0.2 0.9 2.6
v 0.2 0.4 2.8
v 0.2 0.5 2.8
v 0.2 0.8 2.8
v 0.2 0.9 2.8
v 0.3 0.5 0.6
v 0.3 0.8 0.6
v 0.3 0.5 0.8
v 0.3 0.8 0.8
v 0.3 0.9 0.8
v 0.3 1 0.8
v 0.3 0.5 1
v 0.3 0.8 1
v 0.3 1 1
v 0.3 1.1 1
v 0.3 1 1.1
v 0.3 1.1 1.1
v 0.3 1 1.2
v 0.3 1.1 1.2
v 0.3 0.5 1.3
v 0.3 0.8 1.3
v 0.3 1 1.3
v 0.3 1.1 1.3
v 0.3 0.9 1.4
v 0.3 1 1.4
v 0.3 0.5 1.5
v 0.3 0.8 1.5
v 0.3 0.5 1.7
v 0.3 0.8 1.7
v 0.3 0.5 2.6
v 0.3 0.8 2.6
v 0.3 0.5 2.8
v 0.3 0.8 2.8
v -0.1 0 -0.2
v -0.1 0 0.1
v 0.2 0 -0.2
v 0.2 0 0.1
v -0.1 0.1 0.1
v -0.1 0.1 0.2
v 0.2 0.1 0.1
v 0.2 0.1 0.2
v -0.1 0.2 0.2
v -0.1 0.2 0.4
v 0.2 0.2 0.2
v 0.2 0.2 0.4
v -0.1 0.3 0.4
v -0.1 0.3 0.7
v 0.2 0.3 0.4
v 0.2 0.3 0.7
v -0.1 0.4 0.7
v -0.1 0.4 0.8
v -0.1 0.4 1
v -0.1 0.4 1.3
v -0.1 0.4 1.5
v -0.1 0.4 1.6
v -0.1 0.4 2.6
v -0.1 0.4 2.8
v 0.2 0.4 0.7
v 0.2 0.4 0.8
v 0.2 0.4 1
v 0.2 0.4 1.3
v 0.2 0.4 1.5
v 0.2 0.4 1.6
v 0.2 0.4 2.6
v 0.2 0.4 2.8
v -0.2 0.5 0.6
v -0.2 0.5 0.8
v -0.2 0.5 1
v -0.2 0.5 1.3
v -0.2 0.5 1.5
v -0.2 0.5 1.7
v -0.2 0.5 2.6
v -0.2 0.5 2.8
v -0.1 0.5 0.6
v -0.1 0.5 0.7
v -0.1 0.5 0.8
v -0.1 0.5 1
v -0.1 0.5 1.3
v -0.1 0.5 1.5
v -0.1 0.5 1.6
v -0.1 0.5 1.7
v -0.1 0.5 1.8
v -0.1 0.5 2.5
v -0.1 0.5 2.6
v -0.1 0.5 2.8
v 0 0.5 1.9
v 0 0.5 2
v 0 0.5 2.1
v 0 0.5 2.2
v 0 0.5 2.3
v 0 0.5 2.4
v 0.1 0.5 1.9
v 0.1 0.5 2
v 0.1 0.5 2.1
v 0.1 0.5 2.2
v 0.1 0.5 2.3
v 0.1 0.5 2.4
v 0.2 0.5 0.6
v 0.2 0.5 0.7
v 0.2 0.5 0.8
v 0.2 0.5 1
v 0.2 0.5 1.3
v 0.2 0.5 1.5
v 0.2 0.5 1.6
v 0.2 0.5 1.7
v 0.2 0.5 1.8
v 0.2 0.5 2.5
v 0.2 0.5 2.6
v 0.2 0.5 2.8
v 0.3 0.5 0.6
v 0.3 0.5 0.8
v 0.3 0.5 1
v 0.3 0.5 1.3
v 0.3 0.5 1.5
v 0.3 0.5 1.7
v 0.3 0.5 2.6
v 0.3 0.5 2.8
v -0.1 0.6 1.9
v -0.1 0.6 2
v -0.1 0.6 2.1
v -0.1 0.6 2.2
v -0.1 0.6 2.3
v -0.1 0.6 2.4
v 0 0.6 1.8
v 0 0.6 1.9
v 0 0.6 2
v 0 0.6 2.1
v 0 0.6 2.2
v 0 0.6 2.3
v 0 0.6 2.4
v 0 0.6 2.5
v 0.1 0.6 1.8
v 0.1 0.6 1.9
v 0.1 0.6 2
v 0.1 0.6 2.1
v 0.1 0.6 2.2
v 0.1 0.6 2.3
v 0.1 0.6 2.4
v 0.1 0.6 2.5
v 0.2 0.6 1.9
v 0.2 0.6 2
v 0.2 0.6 2.1
v 0.2 0.6 2.2
v 0.2 0.6 2.3
v 0.2 0.6 2.4
v -0.1 0.8 2.7
v -0.1 0.8 2.8
v 0.2 0.8 2.7
v 0.2 0.8 2.8
v 0.2 0.9 0.8
v 0.2 0.9 1
v 0.2 0.9 1.3
v 0.2 0.9 1.4
v 0.3 0.9 0.8
v 0.3 0.9 1.4
v -0.1 0.4 -0.2
v -0.1 0.4 -0.1
v 0.2 0.4 -0.2
v 0.2 0.4 -0.1
v -0.1 0.5 -0.1
v -0.1 0.5 0
v -0.1 0.5 2.7
v -0.1 0.5 2.8
v 0.2 0.5 -0.1
v 0.2 0.5 0
v 0.2 0.5 2.7
v 0.2 0.5 2.8
v -0.1 0.6 0
v -0.1 0.6 0.5
v 0 0.6 0
v 0 0.6 0.5
v 0.1 0.6 0
v 0.1 0.6 0.5
v 0.2 0.6 0
v 0.2 0.6 0.5
v -0.1 0.7 1.9
v -0.1 0.7 2
v -0.1 0.7 2.1
v -0.1 0.7 2.2
v -0.1 0.7 2.3
v -0.1 0.7 2.4
v 0 0.7 0
v 0 0.7 0.5
v 0 0.7 1.8
v 0 0.7 1.9
v 0 0.7 2
v 0 0.7 2.1
v 0 0.7 2.2
v 0 0.7 2.3
v 0 0.7 2.4
v 0 0.7 2.5
v 0.1 0.7 0
v 0.1 0.7 0.5
v 0.1 0.7 1.8
v 0.1 0.7 1.9
v 0.1 0.7 2
v 0.1 0.7 2.1
v 0.1 0.7 2.2
v 0.1 0.7 2.3
v 0.1 0.7 2.4
v 0.1 0.7 2.5
v 0.2 0.7 1.9
v 0.2 0.7 2
v 0.2 0.7 2.1
v 0.2 0.7 2.2
v 0.2 0.7 2.3
v 0.2 0.7 2.4
v -0.2 0.8 0.6
v -0.2 0.8 0.8
v -0.2 0.8 1
v -0.2 0.8 1.3
v -0.2 0.8 1.5
v -0.2 0.8 1.7
v -0.2 0.8 2.6
v -0.2 0.8 2.8
v -0.1 0.8 0.5
v -0.1 0.8 0.6
v -0.1 0.8 0.7
v -0.1 0.8 0.8
v -0.1 0.8 1
v -0.1 0.8 1.3
v -0.1 0.8 1.5
v -0.1 0.8 1.6
v -0.1 0.8 1.7
v -0.1 0.8 1.8
v -0.1 0.8 2.5
v -0.1 0.8 2.6
v -0.1 0.8 2.8
v 0 0.8 1.9
v 0 0.8 2
v 0 0.8 2.1
v 0 0.8 2.2
v 0 0.8 2.3
v 0 0.8 2.4
v 0.1 0.8 1.9
v 0.1 0.8 2
v 0.1 0.8 2.1
v 0.1 0.8 2.2
v 0.1 0.8 2.3
v 0.1 0.8 2.4
v 0.2 0.8 0.5
v 0.2 0.8 0.6
v 0.2 0.8 0.7
v 0.2 0.8 0.8
v 0.2 0.8 1
v 0.2 0.8 1.3
v 0.2 0.8 1.5
v 0.2 0.8 1.6
v 0.2 0.8 1.7
v 0.2 0.8 1.8
v 0.2 0.8 2.5
v 0.2 0.8 2.6
v 0.2 0.8 2.8
v 0.3 0.8 0.6
v 0.3 0.8 0.8
v 0.3 0.8 1
v 0.3 0.8 1.3
v 0.3 0.8 1.5
v 0.3 0.8 1.7
v 0.3 0.8 2.6
v 0.3 0.8 2.8
v -0.1 0.9 1.5
v -0.1 0.9 1.6
v -0.1 0.9 2.6
v -0.1 0.9 2.8
v 0.2 0.9 1.5
v 0.2 0.9 1.6
v 0.2 0.9 2.6
v 0.2 0.9 2.8
v -0.1 1 0.7
v -0.1 1 0.8
v -0.1 1 1.4
v -0.1 1 1.5
v 0.2 1 0.7
v 0.2 1 0.8
v 0.2 1 1
v 0.2 1 1.1
v 0.2 1 1.2
v 0.2 1 1.3
v 0.2 1 1.4
v 0.2 1 1.5
v 0.3 1 0.8
v 0.3 1 1
v 0.3 1 1.1
v 0.3 1 1.2
v 0.3 1 1.3
v 0.3 1 1.4
v 0.2 1.1 1
v 0.2 1.1 1.1
v 0.2 1.1 1.2
v 0.2 1.1 1.3
v 0.3 1.1 1
v 0.3 1.1 1.1
v 0.3 1.1 1.2
v 0.3 1.1 1.3
v -0.1 1.2 0.8
v -0.1 1.2 1.4
v 0.2 1.2 0.8
v 0.2 1.2 1.4

# faces
f 3/3/1 2/3/1 1/3/1
f 4/3/1 2/3/1 3/3/1
f 7/3/1 6/3/1 5/3/1
f 8/3/1 6/3/1 7/3/1
f 11/3/1 10/3/1 9/3/1
f 12/3/1 10/3/1 11/3/1
f 13/3/1 10/3/1 12/3/1
f 14/3/1 10/3/1 13/3/1
f 15/3/1 13/3/1 12/3/1
f 16/3/1 13/3/1 15/3/1
f 21/1/1 18/1/1 17/1/1
f 22/1/1 20/1/1 19/1/1
f 23/1/1 21/1/1 17/1/1
f 23/1/1 22/1/1 21/1/1
f 24/1/1 20/1/1 22/1/1
f 24/1/1 22/1/1 23/1/1
f 29/2/1 26/2/1 25/2/1
f 30/2/1 26/2/1 29/2/1
f 31/2/1 28/2/1 27/2/1
f 32/2/1 28/2/1 31/2/1
f 35/2/1 34/2/1 33/2/1
f 36/2/1 34/2/1 35/2/1
f 37/3/1 36/3/1 35/3/1
f 38/3/1 36/3/1 37/3/1
f 42/3/1 40/3/1 39/3/1
f 43/3/1 40/3/1 42/3/1
f 44/3/1 42/3/1 41/3/1
f 45/3/1 42/3/1 44/3/1
f 48/1/1 47/1/1 46/1/1
f 49/1/1 47/1/1 48/1/1
f 52/1/1 51/1/1 50/1/1
f 53/1/1 51/1/1 52/1/1
f 57/1/1 55/1/1 54/1/1
f 58/1/1 55/1/1 57/1/1
f 60/1/1 57/1/1 56/1/1
f 61/1/1 57/1/1 60/1/1
f 62/1/1 59/1/1 58/1/1
f 63/1/1 59/1/1 62/1/1
f 64/1/1 62/1/1 61/1/1
f 65/1/1 62/1/1 64/1/1
f 69/1/1 67/1/1 66/1/1
f 70/1/1 67/1/1 69/1/1
f 72/1/1 69/1/1 68/1/1
f 73/1/1 69/1/1 72/1/1
f 74/1/1 71/1/1 70/1/1
f 75/1/1 71/1/1 74/1/1
f 76/1/1 74/1/1 73/1/1
f 77/1/1 74/1/1 76/1/1
f 81/1/1 79/1/1 78/1/1
f 82/1/1 79/1/1 81/1/1
f 84/1/1 81/1/1 80/1/1
f 85/1/1 81/1/1 84/1/1
f 86/1/1 83/1/1 82/1/1
f 87/1/1 83/1/1 86/1/1
f 88/1/1 86/1/1 85/1/1
f 89/1/1 86/1/1 88/1/1
f 92/3/1 91/3/1 90/3/1
f 93/3/1 91/3/1 92/3/1
f 94/3/1 92/3/1 90/3/1
f 95/3/1 91/3/1 93/3/1
f 96/3/1 94/3/1 90/3/1
f 96/3/1 95/3/1 94/3/1
f 97/3/1 91/3/1 95/3/1
f 97/3/1 95/3/1 96/3/1
f 101/3/1 99/3/1 98/3/1
f 102/3/1 99/3/1 101/3/1
f 104/3/1 101/3/1 100/3/1
f 105/3/1 101/3/1 104/3/1
f 106/3/1 103/3/1 102/3/1
f 107/3/1 103/3/1 106/3/1
f 108/3/1 106/3/1 105/3/1
f 109/3/1 106/3/1 108/3/1
f 110/3/2 111/3/2 112/3/2
f 112/3/2 111/3/2 113/3/2
f 114/3/2 115/3/2 116/3/2
f 116/3/2 115/3/2 117/3/2
f 118/3/2 119/3/2 120/3/2
f 120/3/2 119/3/2 121/3/2
f 122/3/2 123/3/2 124/3/2
f 124/3/2 123/3/2 125/3/2
f 126/1/2 127/1/2 128/1/2
f 128/1/2 127/1/2 129/1/2
f 130/1/2 131/1/2 132/1/2
f 132/1/2 131/1/2 133/1/2
f 134/3/2 135/3/2 137/3/2
f 137/3/2 135/3/2 138/3/2
f 136/3/2 137/3/2 139/3/2
f 139/3/2 137/3/2 140/3/2
f 141/3/2 142/3/2 143/3/2
f 143/3/2 142/3/2 144/3/2
f 145/2/2 146/2/2 147/2/2
f 147/2/2 146/2/2 148/2/2
f 149/2/2 150/2/2 151/2/2
f 151/2/2 150/2/2 152/2/2
f 153/2/2 154/2/2 157/2/2
f 157/2/2 154/2/2 158/2/2
f 155/2/2 156/2/2 159/2/2
f 159/2/2 156/2/2 160/2/2
f 161/1/2 162/1/2 163/1/2
f 163/1/2 162/1/2 164/1/2
f 161/1/2 163/1/2 165/1/2
f 164/1/2 162/1/2 166/1/2
f 161/1/2 165/1/2 167/1/2
f 165/1/2 166/1/2 167/1/2
f 166/1/2 162/1/2 168/1/2
f 167/1/2 166/1/2 168/1/2
f 169/1/2 170/1/2 172/1/2
f 172/1/2 170/1/2 173/1/2
f 171/1/2 172/1/2 175/1/2
f 175/1/2 172/1/2 176/1/2
f 173/1/2 174/1/2 177/1/2
f 177/1/2 174/1/2 178/1/2
f 176/1/2 177/1/2 179/1/2
f 179/1/2 177/1/2 180/1/2
f 181/1/2 182/1/2 184/1/2
f 184/1/2 182/1/2 185/1/2
f 183/1/2 184/1/2 187/1/2
f 187/1/2 184/1/2 188/1/2
f 185/1/2 186/1/2 189/1/2
f 189/1/2 186/1/2 190/1/2
f 188/1/2 189/1/2 191/1/2
f 191/1/2 189/1/2 192/1/2
f 193/1/2 194/1/2 196/1/2
f 196/1/2 194/1/2 197/1/2
f 195/1/2 196/1/2 199/1/2
f 199/1/2 196/1/2 200/1/2
f 197/1/2 198/1/2 201/1/2
f 201/1/2 198/1/2 202/1/2
f 200/1/2 201/1/2 203/1/2
f 203/1/2 201/1/2 204/1/2
f 205/2/2 206/2/2 207/2/2
f 207/2/2 206/2/2 208/2/2
f 209/3/2 210/3/2 212/3/2
f 212/3/2 210/3/2 213/3/2
f 211/3/2 212/3/2 215/3/2
f 215/3/2 212/3/2 216/3/2
f 213/3/2 214/3/2 217/3/2
f 217/3/2 214/3/2 218/3/2
f 216/3/2 217/3/2 219/3/2
f 219/3/2 217/3/2 220/3/2
f 223/2/3 222/2/3 221/2/3
f 224/2/3 222/2/3 223/2/3
f 225/1/3 224/1/3 223/1/3
f 226/1/3 224/1/3 225/1/3
f 227/2/3 226/2/3 225/2/3
f 228/2/3 226/2/3 227/2/3
f 229/1/3 228/1/3 227/1/3
f 230/1/3 228/1/3 229/1/3
f 231/2/3 230/2/3 229/2/3
f 232/2/3 230/2/3 231/2/3
f 235/3/3 234/3/3 233/3/3
f 236/3/3 234/3/3 235/3/3
f 239/3/3 238/3/3 237/3/3
f 241/3/3 240/3/3 239/3/3
f 243/3/3 239/3/3 237/3/3
f 243/3/3 242/3/3 241/3/3
f 243/3/3 241/3/3 239/3/3
f 244/3/3 242/3/3 243/3/3
f 245/3/3 242/3/3 244/3/3
f 246/3/3 242/3/3 245/3/3
f 247/3/3 242/3/3 246/3/3
f 248/3/3 242/3/3 247/3/3
f 249/3/3 242/3/3 248/3/3
f 250/3/3 242/3/3 249/3/3
f 252/3/3 249/3/3 248/3/3
f 252/1/3 251/1/3 250/1/3
f 252/1/3 250/1/3 249/1/3
f 253/1/3 251/1/3 252/1/3
f 254/3/3 252/3/3 248/3/3
f 255/3/3 252/3/3 254/3/3
f 256/3/3 252/3/3 255/3/3
f 260/2/3 256/2/3 255/2/3
f 261/2/3 256/2/3 260/2/3
f 262/2/3 258/2/3 257/2/3
f 263/3/3 259/3/3 258/3/3
f 263/2/3 258/2/3 262/2/3
f 264/3/3 259/3/3 263/3/3
f 266/1/3 261/1/3 260/1/3
f 267/1/3 261/1/3 266/1/3
f 268/1/3 263/1/3 262/1/3
f 269/3/3 265/3/3 264/3/3
f 269/1/3 263/1/3 268/1/3
f 269/3/3 264/3/3 263/3/3
f 270/2/3 267/2/3 266/2/3
f 271/2/3 267/2/3 270/2/3
f 272/3/3 269/3/3 268/3/3
f 273/3/3 265/3/3 269/3/3
f 273/3/3 269/3/3 272/3/3
f 274/3/3 265/3/3 273/3/3
f 275/3/3 265/3/3 274/3/3
f 276/1/3 271/1/3 270/1/3
f 277/1/3 271/1/3 276/1/3
f 278/1/3 273/1/3 272/1/3
f 279/3/3 274/3/3 273/3/3
f 279/1/3 273/1/3 278/1/3
f 280/3/3 274/3/3 279/3/3
f 281/2/3 277/2/3 276/2/3
f 282/2/3 277/2/3 281/2/3
f 283/2/3 279/2/3 278/2/3
f 284/2/3 279/2/3 283/2/3
f 287/1/3 286/1/3 285/1/3
f 288/1/3 286/1/3 287/1/3
f 291/1/3 290/1/3 289/1/3
f 292/1/3 290/1/3 291/1/3
f 295/1/3 294/1/3 293/1/3
f 296/1/3 294/1/3 295/1/3
f 299/1/3 298/1/3 297/1/3
f 300/1/3 298/1/3 299/1/3
f 304/3/3 302/3/3 301/3/3
f 305/3/3 302/3/3 304/3/3
f 307/3/3 304/3/3 303/3/3
f 308/3/3 304/3/3 307/3/3
f 309/3/3 306/3/3 305/3/3
f 310/3/3 306/3/3 309/3/3
f 313/3/3 312/3/3 311/3/3
f 314/3/3 312/3/3 313/3/3
f 318/3/3 316/3/3 315/3/3
f 319/3/3 316/3/3 318/3/3
f 321/1/3 318/1/3 317/1/3
f 322/1/3 318/1/3 321/1/3
f 323/1/3 320/1/3 319/1/3
f 324/1/3 320/1/3 323/1/3
f 326/3/3 323/3/3 322/3/3
f 327/3/3 323/3/3 326/3/3
f 329/1/3 326/1/3 325/1/3
f 330/1/3 326/1/3 329/1/3
f 331/1/3 328/1/3 327/1/3
f 332/1/3 328/1/3 331/1/3
f 334/3/3 331/3/3 330/3/3
f 335/3/3 331/3/3 334/3/3
f 337/1/3 334/1/3 333/1/3
f 338/1/3 334/1/3 337/1/3
f 339/1/3 336/1/3 335/1/3
f 340/1/3 336/1/3 339/1/3
f 341/3/3 339/3/3 338/3/3
f 342/3/3 339/3/3 341/3/3
f 345/3/3 344/3/3 343/3/3
f 346/3/3 344/3/3 345/3/3
f 347/3/4 348/3/4 349/3/4
f 349/3/4 348/3/4 350/3/4
f 351/3/4 352/3/4 353/3/4
f 353/3/4 352/3/4 354/3/4
f 355/3/4 356/3/4 358/3/4
f 358/3/4 356/3/4 359/3/4
f 357/1/4 358/1/4 361/1/4
f 361/1/4 358/1/4 362/1/4
f 359/1/4 360/1/4 363/1/4
f 363/1/4 360/1/4 364/1/4
f 362/3/4 363/3/4 366/3/4
f 366/3/4 363/3/4 367/3/4
f 365/1/4 366/1/4 369/1/4
f 369/1/4 366/1/4 370/1/4
f 367/1/4 368/1/4 371/1/4
f 371/1/4 368/1/4 372/1/4
f 370/3/4 371/3/4 374/3/4
f 374/3/4 371/3/4 375/3/4
f 373/1/4 374/1/4 377/1/4
f 377/1/4 374/1/4 378/1/4
f 375/1/4 376/1/4 379/1/4
f 379/1/4 376/1/4 380/1/4
f 378/3/4 379/3/4 381/3/4
f 381/3/4 379/3/4 382/3/4
f 383/3/4 384/3/4 385/3/4
f 385/3/4 386/3/4 387/3/4
f 383/3/4 385/3/4 389/3/4
f 387/3/4 388/3/4 389/3/4
f 385/3/4 387/3/4 389/3/4
f 389/3/4 388/3/4 390/3/4
f 390/3/4 388/3/4 391/3/4
f 391/3/4 388/3/4 392/3/4
f 392/3/4 388/3/4 393/3/4
f 393/3/4 388/3/4 394/3/4
f 394/3/4 388/3/4 395/3/4
f 395/3/4 388/3/4 396/3/4
f 394/3/4 395/3/4 398/3/4
f 396/1/4 397/1/4 398/1/4
f 395/1/4 396/1/4 398/1/4
f 398/1/4 397/1/4 399/1/4
f 394/3/4 398/3/4 400/3/4
f 400/3/4 398/3/4 401/3/4
f 401/3/4 398/3/4 402/3/4
f 401/2/4 402/2/4 406/2/4
f 406/2/4 402/2/4 407/2/4
f 403/2/4 404/2/4 408/2/4
f 404/3/4 405/3/4 409/3/4
f 408/2/4 404/2/4 409/2/4
f 409/3/4 405/3/4 410/3/4
f 406/1/4 407/1/4 412/1/4
f 412/1/4 407/1/4 413/1/4
f 408/1/4 409/1/4 414/1/4
f 414/1/4 409/1/4 415/1/4
f 410/3/4 411/3/4 416/3/4
f 416/3/4 411/3/4 417/3/4
f 417/3/4 411/3/4 419/3/4
f 418/3/4 419/3/4 420/3/4
f 419/3/4 411/3/4 421/3/4
f 420/3/4 419/3/4 421/3/4
f 412/2/4 413/2/4 422/2/4
f 422/2/4 413/2/4 423/2/4
f 414/2/4 415/2/4 424/2/4
f 424/2/4 415/2/4 425/2/4
f 421/3/4 411/3/4 427/3/4
f 424/1/4 425/1/4 428/1/4
f 426/3/4 427/3/4 429/3/4
f 427/3/4 411/3/4 430/3/4
f 429/3/4 427/3/4 430/3/4
f 422/1/4 423/1/4 431/1/4
f 431/1/4 423/1/4 432/1/4
f 424/1/4 428/1/4 433/1/4
f 428/3/4 429/3/4 434/3/4
f 433/1/4 428/1/4 434/1/4
f 434/3/4 429/3/4 435/3/4
f 431/2/4 432/2/4 436/2/4
f 436/2/4 432/2/4 437/2/4
f 433/2/4 434/2/4 438/2/4
f 438/2/4 434/2/4 439/2/4
f 440/1/4 441/1/4 442/1/4
f 442/1/4 441/1/4 443/1/4
f 444/1/4 445/1/4 446/1/4
f 446/1/4 445/1/4 447/1/4
f 448/1/4 449/1/4 450/1/4
f 450/1/4 449/1/4 451/1/4
f 452/1/4 453/1/4 454/1/4
f 454/1/4 453/1/4 455/1/4
f 456/3/4 457/3/4 459/3/4
f 459/3/4 457/3/4 460/3/4
f 458/3/4 459/3/4 462/3/4
f 462/3/4 459/3/4 463/3/4
f 460/3/4 461/3/4 464/3/4
f 464/3/4 461/3/4 465/3/4
f 466/2/4 467/2/4 468/2/4
f 468/2/4 467/2/4 469/2/4
f 468/1/4 469/1/4 472/1/4
f 472/1/4 469/1/4 473/1/4
f 470/3/4 471/3/4 474/3/4
f 470/3/4 474/3/4 476/3/4
f 474/1/4 475/1/4 476/1/4
f 476/1/4 475/1/4 477/1/4
f 470/3/4 476/3/4 478/3/4
f 472/2/4 473/2/4 480/2/4
f 480/2/4 473/2/4 481/2/4
f 478/1/4 479/1/4 482/1/4
f 470/3/4 478/3/4 482/3/4
f 482/1/4 479/1/4 483/1/4
f 470/3/4 482/3/4 484/3/4
f 484/3/4 482/3/4 485/3/4
f 480/1/4 481/1/4 486/1/4
f 486/1/4 481/1/4 487/1/4
f 486/2/4 487/2/4 488/2/4
f 488/2/4 487/2/4 489/2/4
f 490/3/4 491/3/4 492/3/4
f 492/3/4 491/3/4 493/3/4
f 496/3/5 495/3/5 494/3/5
f 497/3/5 495/3/5 496/3/5
f 500/3/5 499/3/5 498/3/5
f 501/3/5 499/3/5 500/3/5
f 504/3/5 503/3/5 502/3/5
f 505/3/5 503/3/5 504/3/5
f 508/3/5 507/3/5 506/3/5
f 509/3/5 507/3/5 508/3/5
f 518/2/5 511/2/5 510/2/5
f 519/1/5 512/1/5 511/1/5
f 519/2/5 511/2/5 518/2/5
f 520/2/5 513/2/5 512/2/5
f 520/1/5 512/1/5 519/1/5
f 521/1/5 514/1/5 513/1/5
f 521/2/5 513/2/5 520/2/5
f 522/2/5 515/2/5 514/2/5
f 522/1/5 514/1/5 521/1/5
f 523/2/5 515/2/5 522/2/5
f 524/3/5 517/3/5 516/3/5
f 525/3/5 517/3/5 524/3/5
f 534/2/5 527/2/5 526/2/5
f 535/2/5 527/2/5 534/2/5
f 536/1/5 528/1/5 527/1/5
f 536/2/5 527/2/5 535/2/5
f 537/2/5 529/2/5 528/2/5
f 537/1/5 528/1/5 536/1/5
f 538/1/5 530/1/5 529/1/5
f 538/2/5 529/2/5 537/2/5
f 539/2/5 531/2/5 530/2/5
f 539/1/5 530/1/5 538/1/5
f 540/2/5 531/2/5 539/2/5
f 541/2/5 531/2/5 540/2/5
f 544/3/5 533/3/5 532/3/5
f 545/3/5 533/3/5 544/3/5
f 552/1/5 547/1/5 546/1/5
f 553/1/5 547/1/5 552/1/5
f 554/1/5 549/1/5 548/1/5
f 555/1/5 549/1/5 554/1/5
f 556/1/5 551/1/5 550/1/5
f 557/1/5 551/1/5 556/1/5
f 564/2/5 541/2/5 540/2/5
f 565/1/5 542/1/5 541/1/5
f 565/2/5 541/2/5 564/2/5
f 566/1/5 542/1/5 565/1/5
f 567/3/5 544/3/5 543/3/5
f 568/3/5 544/3/5 567/3/5
f 570/2/5 559/2/5 558/2/5
f 570/2/5 560/2/5 559/2/5
f 571/1/5 561/1/5 560/1/5
f 571/2/5 560/2/5 570/2/5
f 572/2/5 562/2/5 561/2/5
f 572/1/5 561/1/5 571/1/5
f 573/1/5 563/1/5 562/1/5
f 573/2/5 562/2/5 572/2/5
f 574/2/5 564/2/5 563/2/5
f 574/1/5 563/1/5 573/1/5
f 574/2/5 565/2/5 564/2/5
f 575/2/5 565/2/5 574/2/5
f 576/3/5 569/3/5 568/3/5
f 577/3/5 569/3/5 576/3/5
f 585/1/5 579/1/5 578/1/5
f 586/1/5 579/1/5 585/1/5
f 587/1/5 581/1/5 580/1/5
f 588/1/5 581/1/5 587/1/5
f 589/1/5 583/1/5 582/1/5
f 590/1/5 583/1/5 589/1/5
f 592/3/5 585/3/5 584/3/5
f 593/3/5 585/3/5 592/3/5
f 594/3/5 587/3/5 586/3/5
f 595/3/5 587/3/5 594/3/5
f 596/3/5 589/3/5 588/3/5
f 597/3/5 589/3/5 596/3/5
f 598/3/5 591/3/5 590/3/5
f 599/3/5 591/3/5 598/3/5
f 600/1/5 594/1/5 593/1/5
f 601/1/5 594/1/5 600/1/5
f 602/1/5 596/1/5 595/1/5
f 603/1/5 596/1/5 602/1/5
f 604/1/5 598/1/5 597/1/5
f 605/1/5 598/1/5 604/1/5
f 608/3/5 607/3/5 606/3/5
f 609/3/5 607/3/5 608/3/5
f 614/3/5 611/3/5 610/3/5
f 614/3/5 613/3/5 612/3/5
f 614/3/5 612/3/5 611/3/5
f 615/3/5 613/3/5 614/3/5
f 616/3/6 617/3/6 618/3/6
f 618/3/6 617/3/6 619/3/6
f 620/3/6 621/3/6 624/3/6
f 624/3/6 621/3/6 625/3/6
f 622/3/6 623/3/6 626/3/6
f 626/3/6 623/3/6 627/3/6
f 628/3/6 629/3/6 630/3/6
f 630/3/6 629/3/6 631/3/6
f 632/3/6 633/3/6 634/3/6
f 634/3/6 633/3/6 635/3/6
f 636/1/6 637/1/6 645/1/6
f 645/1/6 637/1/6 646/1/6
f 638/1/6 639/1/6 647/1/6
f 647/1/6 639/1/6 648/1/6
f 640/1/6 641/1/6 649/1/6
f 649/1/6 641/1/6 650/1/6
f 642/3/6 643/3/6 652/3/6
f 652/3/6 643/3/6 653/3/6
f 644/3/6 645/3/6 654/3/6
f 654/3/6 645/3/6 655/3/6
f 646/3/6 647/3/6 656/3/6
f 656/3/6 647/3/6 657/3/6
f 648/3/6 649/3/6 658/3/6
f 658/3/6 649/3/6 659/3/6
f 650/3/6 651/3/6 660/3/6
f 660/3/6 651/3/6 661/3/6
f 655/1/6 656/1/6 662/1/6
f 662/1/6 656/1/6 663/1/6
f 657/1/6 658/1/6 664/1/6
f 664/1/6 658/1/6 665/1/6
f 659/1/6 660/1/6 666/1/6
f 666/1/6 660/1/6 667/1/6
f 668/2/6 669/2/6 677/2/6
f 677/2/6 669/2/6 678/2/6
f 669/1/6 670/1/6 679/1/6
f 678/2/6 669/2/6 679/2/6
f 670/2/6 671/2/6 680/2/6
f 679/1/6 670/1/6 680/1/6
f 671/1/6 672/1/6 681/1/6
f 680/2/6 671/2/6 681/2/6
f 672/2/6 673/2/6 682/2/6
f 681/1/6 672/1/6 682/1/6
f 682/2/6 673/2/6 683/2/6
f 683/2/6 673/2/6 684/2/6
f 674/3/6 675/3/6 687/3/6
f 687/3/6 675/3/6 688/3/6
f 689/1/6 690/1/6 695/1/6
f 695/1/6 690/1/6 696/1/6
f 691/1/6 692/1/6 697/1/6
f 697/1/6 692/1/6 698/1/6
f 693/1/6 694/1/6 699/1/6
f 699/1/6 694/1/6 700/1/6
f 676/1/6 677/1/6 701/1/6
f 677/2/6 678/2/6 702/2/6
f 701/1/6 677/1/6 702/1/6
f 702/2/6 678/2/6 703/2/6
f 683/2/6 684/2/6 708/2/6
f 684/1/6 685/1/6 709/1/6
f 708/2/6 684/2/6 709/2/6
f 709/1/6 685/1/6 710/1/6
f 686/3/6 687/3/6 711/3/6
f 711/3/6 687/3/6 712/3/6
f 702/2/6 703/2/6 714/2/6
f 703/2/6 704/2/6 714/2/6
f 704/1/6 705/1/6 715/1/6
f 714/2/6 704/2/6 715/2/6
f 705/2/6 706/2/6 716/2/6
f 715/1/6 705/1/6 716/1/6
f 706/1/6 707/1/6 717/1/6
f 716/2/6 706/2/6 717/2/6
f 707/2/6 708/2/6 718/2/6
f 717/1/6 707/1/6 718/1/6
f 708/2/6 709/2/6 718/2/6
f 718/2/6 709/2/6 719/2/6
f 712/3/6 713/3/6 720/3/6
f 720/3/6 713/3/6 721/3/6
f 722/2/6 723/2/6 726/2/6
f 726/2/6 723/2/6 727/2/6
f 724/3/6 725/3/6 728/3/6
f 728/3/6 725/3/6 729/3/6
f 730/3/6 731/3/6 734/3/6
f 734/3/6 731/3/6 735/3/6
f 732/3/6 733/3/6 740/3/6
f 740/3/6 733/3/6 741/3/6
f 735/3/6 736/3/6 742/3/6
f 742/3/6 736/3/6 743/3/6
f 737/3/6 738/3/6 744/3/6
f 744/3/6 738/3/6 745/3/6
f 739/3/6 740/3/6 746/3/6
f 746/3/6 740/3/6 747/3/6
f 748/1/6 749/1/6 752/1/6
f 752/1/6 749/1/6 753/1/6
f 750/1/6 751/1/6 754/1/6
f 754/1/6 751/1/6 755/1/6
f 756/3/6 757/3/6 758/3/6
f 758/3/6 757/3/6 759/3/6
